<svg width="24" height="24" viewBox="0 0 24 24" fill="none" xmlns="http://www.w3.org/2000/svg">
<path d="M7.09992 0.333374H16.8999C20.6333 0.333374 23.6666 3.36671 23.6666 7.10004V16.9C23.6666 18.6947 22.9537 20.4158 21.6847 21.6848C20.4157 22.9538 18.6946 23.6667 16.8999 23.6667H7.09992C3.36659 23.6667 0.333252 20.6334 0.333252 16.9V7.10004C0.333252 5.30541 1.04617 3.58428 2.31516 2.31529C3.58416 1.04629 5.30529 0.333374 7.09992 0.333374ZM6.86659 2.66671C5.75268 2.66671 4.68439 3.10921 3.89674 3.89686C3.10908 4.68451 2.66659 5.7528 2.66659 6.86671V17.1334C2.66659 19.455 4.54492 21.3334 6.86659 21.3334H17.1333C18.2472 21.3334 19.3155 20.8909 20.1031 20.1032C20.8908 19.3156 21.3333 18.2473 21.3333 17.1334V6.86671C21.3333 4.54504 19.4549 2.66671 17.1333 2.66671H6.86659ZM18.1249 4.41671C18.5117 4.41671 18.8826 4.57035 19.1561 4.84384C19.4296 5.11733 19.5833 5.48827 19.5833 5.87504C19.5833 6.26182 19.4296 6.63275 19.1561 6.90624C18.8826 7.17973 18.5117 7.33337 18.1249 7.33337C17.7381 7.33337 17.3672 7.17973 17.0937 6.90624C16.8202 6.63275 16.6666 6.26182 16.6666 5.87504C16.6666 5.48827 16.8202 5.11733 17.0937 4.84384C17.3672 4.57035 17.7381 4.41671 18.1249 4.41671ZM11.9999 6.16671C13.547 6.16671 15.0307 6.78129 16.1247 7.87525C17.2187 8.96921 17.8333 10.4529 17.8333 12C17.8333 13.5471 17.2187 15.0309 16.1247 16.1248C15.0307 17.2188 13.547 17.8334 11.9999 17.8334C10.4528 17.8334 8.96909 17.2188 7.87513 16.1248C6.78117 15.0309 6.16659 13.5471 6.16659 12C6.16659 10.4529 6.78117 8.96921 7.87513 7.87525C8.96909 6.78129 10.4528 6.16671 11.9999 6.16671ZM11.9999 8.50004C11.0717 8.50004 10.1814 8.86879 9.52505 9.52517C8.86867 10.1815 8.49992 11.0718 8.49992 12C8.49992 12.9283 8.86867 13.8185 9.52505 14.4749C10.1814 15.1313 11.0717 15.5 11.9999 15.5C12.9282 15.5 13.8184 15.1313 14.4748 14.4749C15.1312 13.8185 15.4999 12.9283 15.4999 12C15.4999 11.0718 15.1312 10.1815 14.4748 9.52517C13.8184 8.86879 12.9282 8.50004 11.9999 8.50004Z" fill="#242424"/>
</svg>
